<svg width="254" height="40" viewBox="0 0 254 40" fill="none" xmlns="http://www.w3.org/2000/svg">
<path fill-rule="evenodd" clip-rule="evenodd" d="M24 40C37.2548 40 48 29.7025 48 17H0C0 29.7025 10.7452 40 24 40Z" fill="#468F6F"/>
<ellipse cx="24" cy="16.5" rx="17" ry="16.5" fill="#FFDF7D"/>
<path d="M24 33C33.3888 33 41 25.8366 41 17H7C7 25.8366 14.6112 33 24 33Z" fill="#57B18A"/>
<path d="M36 9.99992C33 7 29 5 24 5C19 5 15 7 12 10C14.3934 5.81573 18.8711 3 24 3C29.1289 3 33.6065 5.8157 36 9.99992Z" fill="#CBAB4B"/>
<path d="M73.398 16.978H73.31L72.122 19.42L68.976 25.228L65.83 19.42L64.642 16.978H64.554V28H61.804V12.644H65.082L69.02 20.146H69.108L73.002 12.644H76.148V28H73.398V16.978Z" fill="#57B18A"/>
<path d="M84.1429 28.264C83.3216 28.264 82.5809 28.1247 81.9209 27.846C81.2756 27.5673 80.7183 27.164 80.2489 26.636C79.7943 26.108 79.4423 25.4773 79.1929 24.744C78.9436 23.996 78.8189 23.16 78.8189 22.236C78.8189 21.312 78.9436 20.4833 79.1929 19.75C79.4423 19.0167 79.7943 18.3933 80.2489 17.88C80.7183 17.352 81.2756 16.9487 81.9209 16.67C82.5809 16.3913 83.3216 16.252 84.1429 16.252C84.9643 16.252 85.7049 16.3913 86.3649 16.67C87.0249 16.9487 87.5823 17.352 88.0369 17.88C88.5063 18.3933 88.8656 19.0167 89.1149 19.75C89.3643 20.4833 89.4889 21.312 89.4889 22.236C89.4889 23.16 89.3643 23.996 89.1149 24.744C88.8656 25.4773 88.5063 26.108 88.0369 26.636C87.5823 27.164 87.0249 27.5673 86.3649 27.846C85.7049 28.1247 84.9643 28.264 84.1429 28.264ZM84.1429 25.998C84.8909 25.998 85.4776 25.7707 85.9029 25.316C86.3283 24.8613 86.5409 24.194 86.5409 23.314V21.18C86.5409 20.3147 86.3283 19.6547 85.9029 19.2C85.4776 18.7453 84.8909 18.518 84.1429 18.518C83.4096 18.518 82.8303 18.7453 82.4049 19.2C81.9796 19.6547 81.7669 20.3147 81.7669 21.18V23.314C81.7669 24.194 81.9796 24.8613 82.4049 25.316C82.8303 25.7707 83.4096 25.998 84.1429 25.998Z" fill="#57B18A"/>
<path d="M91.9854 16.516H94.8014V21.026H99.2234V16.516H102.039V28H99.2234V23.27H94.8014V28H91.9854V16.516Z" fill="#57B18A"/>
<path d="M109.948 28.264C109.097 28.264 108.334 28.1247 107.66 27.846C107 27.5527 106.435 27.1493 105.966 26.636C105.511 26.108 105.159 25.4773 104.91 24.744C104.66 23.996 104.536 23.16 104.536 22.236C104.536 21.3267 104.653 20.5053 104.888 19.772C105.137 19.0387 105.489 18.4153 105.944 17.902C106.398 17.374 106.956 16.9707 107.616 16.692C108.276 16.3987 109.024 16.252 109.86 16.252C110.754 16.252 111.532 16.406 112.192 16.714C112.852 17.022 113.394 17.44 113.82 17.968C114.245 18.496 114.56 19.112 114.766 19.816C114.986 20.5053 115.096 21.246 115.096 22.038V22.962H107.462V23.248C107.462 24.084 107.696 24.7587 108.166 25.272C108.635 25.7707 109.332 26.02 110.256 26.02C110.96 26.02 111.532 25.8733 111.972 25.58C112.426 25.2867 112.83 24.9127 113.182 24.458L114.7 26.152C114.23 26.812 113.585 27.3327 112.764 27.714C111.957 28.0807 111.018 28.264 109.948 28.264ZM109.904 18.364C109.156 18.364 108.562 18.6133 108.122 19.112C107.682 19.6107 107.462 20.256 107.462 21.048V21.224H112.17V21.026C112.17 20.234 111.972 19.596 111.576 19.112C111.194 18.6133 110.637 18.364 109.904 18.364Z" fill="#57B18A"/>
<path d="M119.733 18.76H116.235V16.516H126.047V18.76H122.549V28H119.733V18.76Z" fill="#57B18A"/>
<path d="M136.42 28C135.804 28 135.312 27.824 134.946 27.472C134.594 27.1053 134.374 26.6213 134.286 26.02H134.154C133.963 26.768 133.574 27.3327 132.988 27.714C132.401 28.0807 131.675 28.264 130.81 28.264C129.636 28.264 128.734 27.956 128.104 27.34C127.473 26.724 127.158 25.9027 127.158 24.876C127.158 23.688 127.583 22.808 128.434 22.236C129.284 21.6493 130.494 21.356 132.064 21.356H134.022V20.52C134.022 19.8747 133.853 19.376 133.516 19.024C133.178 18.672 132.636 18.496 131.888 18.496C131.228 18.496 130.692 18.6427 130.282 18.936C129.886 19.2147 129.548 19.552 129.27 19.948L127.598 18.452C128.023 17.792 128.588 17.264 129.292 16.868C129.996 16.4573 130.927 16.252 132.086 16.252C133.64 16.252 134.821 16.604 135.628 17.308C136.434 18.012 136.838 19.024 136.838 20.344V25.756H137.982V28H136.42ZM131.756 26.218C132.386 26.218 132.922 26.0787 133.362 25.8C133.802 25.5213 134.022 25.1107 134.022 24.568V23.05H132.218C130.751 23.05 130.018 23.5193 130.018 24.458V24.832C130.018 25.3013 130.164 25.6533 130.458 25.888C130.766 26.108 131.198 26.218 131.756 26.218Z" fill="#57B18A"/>
<path d="M145.46 16.516H151.774C152.801 16.516 153.585 16.78 154.128 17.308C154.671 17.8213 154.942 18.518 154.942 19.398C154.942 20.85 154.15 21.686 152.566 21.906V21.994C153.505 22.082 154.209 22.3533 154.678 22.808C155.147 23.2627 155.382 23.8713 155.382 24.634C155.382 25.6313 155.074 26.4453 154.458 27.076C153.842 27.692 152.984 28 151.884 28H145.46V16.516ZM151.312 25.954C151.693 25.954 151.987 25.8587 152.192 25.668C152.397 25.4627 152.5 25.1767 152.5 24.81V24.194C152.5 23.8273 152.397 23.5487 152.192 23.358C151.987 23.1527 151.693 23.05 151.312 23.05H148.21V25.954H151.312ZM150.982 21.268C151.319 21.268 151.583 21.1727 151.774 20.982C151.979 20.7913 152.082 20.5273 152.082 20.19V19.64C152.082 19.3027 151.979 19.0387 151.774 18.848C151.583 18.6573 151.319 18.562 150.982 18.562H148.21V21.268H150.982Z" fill="#57B18A"/>
<path d="M163.228 16.516H166.044V21.026H167.892L169.63 18.012C169.952 17.4547 170.282 17.066 170.62 16.846C170.957 16.626 171.404 16.516 171.962 16.516H173.216V18.76H171.984L170.774 20.872C170.568 21.2533 170.37 21.5247 170.18 21.686C169.989 21.8327 169.762 21.9427 169.498 22.016V22.126C169.762 22.1847 169.996 22.2873 170.202 22.434C170.422 22.5807 170.634 22.8373 170.84 23.204L172.27 25.756H173.48V28H172.05C171.492 28 171.03 27.8827 170.664 27.648C170.312 27.4133 169.974 27.01 169.652 26.438L167.892 23.248H166.044V28H163.228V16.516Z" fill="#57B18A"/>
<path d="M184.201 28C183.585 28 183.094 27.824 182.727 27.472C182.375 27.1053 182.155 26.6213 182.067 26.02H181.935C181.744 26.768 181.356 27.3327 180.769 27.714C180.182 28.0807 179.456 28.264 178.591 28.264C177.418 28.264 176.516 27.956 175.885 27.34C175.254 26.724 174.939 25.9027 174.939 24.876C174.939 23.688 175.364 22.808 176.215 22.236C177.066 21.6493 178.276 21.356 179.845 21.356H181.803V20.52C181.803 19.8747 181.634 19.376 181.297 19.024C180.96 18.672 180.417 18.496 179.669 18.496C179.009 18.496 178.474 18.6427 178.063 18.936C177.667 19.2147 177.33 19.552 177.051 19.948L175.379 18.452C175.804 17.792 176.369 17.264 177.073 16.868C177.777 16.4573 178.708 16.252 179.867 16.252C181.422 16.252 182.602 16.604 183.409 17.308C184.216 18.012 184.619 19.024 184.619 20.344V25.756H185.763V28H184.201ZM179.537 26.218C180.168 26.218 180.703 26.0787 181.143 25.8C181.583 25.5213 181.803 25.1107 181.803 24.568V23.05H179.999C178.532 23.05 177.799 23.5193 177.799 24.458V24.832C177.799 25.3013 177.946 25.6533 178.239 25.888C178.547 26.108 178.98 26.218 179.537 26.218Z" fill="#57B18A"/>
<path d="M188.042 16.516H190.858V18.408H190.946C191.151 17.748 191.54 17.2273 192.112 16.846C192.684 16.45 193.351 16.252 194.114 16.252C195.581 16.252 196.695 16.7727 197.458 17.814C198.235 18.8407 198.624 20.3147 198.624 22.236C198.624 24.172 198.235 25.6607 197.458 26.702C196.695 27.7433 195.581 28.264 194.114 28.264C193.351 28.264 192.684 28.066 192.112 27.67C191.555 27.274 191.166 26.746 190.946 26.086H190.858V32.4H188.042V16.516ZM193.212 25.932C193.945 25.932 194.539 25.69 194.994 25.206C195.449 24.722 195.676 24.0693 195.676 23.248V21.268C195.676 20.4467 195.449 19.794 194.994 19.31C194.539 18.8113 193.945 18.562 193.212 18.562C192.537 18.562 191.973 18.7307 191.518 19.068C191.078 19.4053 190.858 19.8527 190.858 20.41V24.062C190.858 24.6633 191.078 25.1253 191.518 25.448C191.973 25.7707 192.537 25.932 193.212 25.932Z" fill="#57B18A"/>
<path d="M201.233 16.516H204.467L207.503 21.576H207.591L210.583 16.516H213.729V28H211.001V19.992H210.913L210.121 21.488L207.481 25.844L204.841 21.488L204.049 19.992H203.961V28H201.233V16.516Z" fill="#57B18A"/>
<path d="M225.43 28C224.814 28 224.322 27.824 223.956 27.472C223.604 27.1053 223.384 26.6213 223.296 26.02H223.164C222.973 26.768 222.584 27.3327 221.998 27.714C221.411 28.0807 220.685 28.264 219.82 28.264C218.646 28.264 217.744 27.956 217.114 27.34C216.483 26.724 216.168 25.9027 216.168 24.876C216.168 23.688 216.593 22.808 217.444 22.236C218.294 21.6493 219.504 21.356 221.074 21.356H223.032V20.52C223.032 19.8747 222.863 19.376 222.526 19.024C222.188 18.672 221.646 18.496 220.898 18.496C220.238 18.496 219.702 18.6427 219.292 18.936C218.896 19.2147 218.558 19.552 218.28 19.948L216.608 18.452C217.033 17.792 217.598 17.264 218.302 16.868C219.006 16.4573 219.937 16.252 221.096 16.252C222.65 16.252 223.831 16.604 224.638 17.308C225.444 18.012 225.848 19.024 225.848 20.344V25.756H226.992V28H225.43ZM220.766 26.218C221.396 26.218 221.932 26.0787 222.372 25.8C222.812 25.5213 223.032 25.1107 223.032 24.568V23.05H221.228C219.761 23.05 219.028 23.5193 219.028 24.458V24.832C219.028 25.3013 219.174 25.6533 219.468 25.888C219.776 26.108 220.208 26.218 220.766 26.218Z" fill="#57B18A"/>
<path d="M229.271 16.516H232.087V21.026H236.509V16.516H239.325V28H236.509V23.27H232.087V28H229.271V16.516Z" fill="#57B18A"/>
<path d="M247.233 28.264C246.382 28.264 245.62 28.1247 244.945 27.846C244.285 27.5527 243.72 27.1493 243.251 26.636C242.796 26.108 242.444 25.4773 242.195 24.744C241.946 23.996 241.821 23.16 241.821 22.236C241.821 21.3267 241.938 20.5053 242.173 19.772C242.422 19.0387 242.774 18.4153 243.229 17.902C243.684 17.374 244.241 16.9707 244.901 16.692C245.561 16.3987 246.309 16.252 247.145 16.252C248.04 16.252 248.817 16.406 249.477 16.714C250.137 17.022 250.68 17.44 251.105 17.968C251.53 18.496 251.846 19.112 252.051 19.816C252.271 20.5053 252.381 21.246 252.381 22.038V22.962H244.747V23.248C244.747 24.084 244.982 24.7587 245.451 25.272C245.92 25.7707 246.617 26.02 247.541 26.02C248.245 26.02 248.817 25.8733 249.257 25.58C249.712 25.2867 250.115 24.9127 250.467 24.458L251.985 26.152C251.516 26.812 250.87 27.3327 250.049 27.714C249.242 28.0807 248.304 28.264 247.233 28.264ZM247.189 18.364C246.441 18.364 245.847 18.6133 245.407 19.112C244.967 19.6107 244.747 20.256 244.747 21.048V21.224H249.455V21.026C249.455 20.234 249.257 19.596 248.861 19.112C248.48 18.6133 247.922 18.364 247.189 18.364Z" fill="#57B18A"/>
</svg>
