<svg width="80" height="80" viewBox="0 0 80 80" fill="none" xmlns="http://www.w3.org/2000/svg">
<path d="M1 15C0.426014 15.5465 0 16.1449 0 17V63C0 64.6568 1.34315 66 3 66H77C78.6569 66 80 64.6568 80 63V17C80 16.5 79.5 15.5 79 15L41.9913 47.7327C40.8552 48.741 39.1448 48.741 38.0087 47.7327L1 15Z" fill="url(#paint0_linear_289_2172)"/>
<path fill-rule="evenodd" clip-rule="evenodd" d="M38.6985 28.4815C39.4474 27.8395 40.5526 27.8395 41.3016 28.4815L69.3016 52.4815C70.1403 53.2003 70.2374 54.4629 69.5186 55.3016C68.7997 56.1402 67.5371 56.2374 66.6985 55.5185L40 32.6342L13.3016 55.5185C12.463 56.2374 11.2004 56.1402 10.4815 55.3016C9.76268 54.4629 9.8598 53.2003 10.6985 52.4815L38.6985 28.4815Z" fill="url(#paint1_linear_289_2172)"/>
<path fill-rule="evenodd" clip-rule="evenodd" d="M38.6985 28.4815C39.4474 27.8395 40.5526 27.8395 41.3016 28.4815L69.3016 52.4815C70.1403 53.2003 70.2374 54.4629 69.5186 55.3016C68.7997 56.1402 67.5371 56.2374 66.6985 55.5185L40 32.6342L13.3016 55.5185C12.463 56.2374 11.2004 56.1402 10.4815 55.3016C9.76268 54.4629 9.8598 53.2003 10.6985 52.4815L38.6985 28.4815Z" fill="url(#paint2_linear_289_2172)"/>
<path d="M77 14C77.5 14 78.5 14.5 79 15L40 49.5L1 15C1.5 14.5 2.5 14 3 14L40 14L77 14Z" fill="url(#paint3_linear_289_2172)"/>
<defs>
<linearGradient id="paint0_linear_289_2172" x1="40" y1="15" x2="40" y2="66" gradientUnits="userSpaceOnUse">
<stop stop-color="#9AD0B9"/>
<stop offset="1" stop-color="#57B18A"/>
</linearGradient>
<linearGradient id="paint1_linear_289_2172" x1="40" y1="30" x2="40" y2="54" gradientUnits="userSpaceOnUse">
<stop stop-color="#DDEFE8"/>
<stop offset="1" stop-color="#BCE0D0"/>
</linearGradient>
<linearGradient id="paint2_linear_289_2172" x1="40" y1="28" x2="40" y2="56" gradientUnits="userSpaceOnUse">
<stop stop-color="#DDEFE8"/>
<stop offset="1" stop-color="#BCE0D0"/>
</linearGradient>
<linearGradient id="paint3_linear_289_2172" x1="40" y1="14" x2="40" y2="49.5" gradientUnits="userSpaceOnUse">
<stop stop-color="#DDEFE8"/>
<stop offset="1" stop-color="#BCE0D0"/>
</linearGradient>
</defs>
</svg>
