<svg width="80" height="81" viewBox="0 0 80 81" fill="none" xmlns="http://www.w3.org/2000/svg">
<path d="M5 40C5 26.7451 15.7452 16 29 16H32C45.2548 16 56 26.7451 56 40V55C56 61.6274 50.6274 67 44 67H17C10.3726 67 5 61.6274 5 55V40Z" fill="url(#paint0_linear_289_2176)"/>
<path fill-rule="evenodd" clip-rule="evenodd" d="M42 9.15676C42 14.0407 38.0408 17.9999 33.1568 17.9999H26.4162C22 17.9999 19 12.416 19 9.99988C19 6.99988 19.5 5.49988 21.5 5.49988C23.5 5.49988 24.5923 5.45992 26.5 4.99988C29.2178 4.34447 30.8793 2.94242 33 1.99991C42 -2.00003 42 4.49988 42 9.15676Z" fill="url(#paint1_linear_289_2176)"/>
<path d="M52 7C52 5.89543 51.1046 5 50 5C48.8954 5 48 5.89543 48 7C48 9.36271 47.3702 10.835 46.3477 11.8629C45.2642 12.9522 43.4932 13.7934 40.7288 14.3521L40.2451 14.4453C35.7234 15.2736 29.4343 15.2862 21.2294 15.1311C21.7258 15.7443 22.2955 16.3103 22.9288 16.7745C20.9333 17.2947 19.0389 18.0652 17.2812 19.0506C27.5653 19.2768 35.7952 19.4303 41.5212 18.2729C41.6792 18.2409 41.836 18.2079 41.9916 18.1736C44.9006 17.5338 47.394 16.4829 49.1835 14.6839C51.1298 12.7275 52 10.1373 52 7Z" fill="#E58964"/>
<rect x="24" y="44" width="51" height="37" rx="6" fill="url(#paint2_linear_289_2176)"/>
<path fill-rule="evenodd" clip-rule="evenodd" d="M32 55C32 53.8954 32.8954 53 34 53H65C66.1046 53 67 53.8954 67 55C67 56.1046 66.1046 57 65 57H34C32.8954 57 32 56.1046 32 55Z" fill="#E58964"/>
<path fill-rule="evenodd" clip-rule="evenodd" d="M32 69C32 67.8954 32.8954 67 34 67H40C41.1046 67 42 67.8954 42 69C42 70.1046 41.1046 71 40 71H34C32.8954 71 32 70.1046 32 69Z" fill="#E58964"/>
<defs>
<linearGradient id="paint0_linear_289_2176" x1="30.5" y1="0.753052" x2="30.5" y2="67" gradientUnits="userSpaceOnUse">
<stop stop-color="#FFC7B1"/>
<stop offset="1" stop-color="#FFA27D"/>
</linearGradient>
<linearGradient id="paint1_linear_289_2176" x1="30.5" y1="0.753052" x2="30.5" y2="67" gradientUnits="userSpaceOnUse">
<stop stop-color="#FFC7B1"/>
<stop offset="1" stop-color="#FFA27D"/>
</linearGradient>
<linearGradient id="paint2_linear_289_2176" x1="49.5" y1="44" x2="49.5" y2="81" gradientUnits="userSpaceOnUse">
<stop stop-color="#FFECE5"/>
<stop offset="1" stop-color="#FFDACB"/>
</linearGradient>
</defs>
</svg>
