<svg width="40" height="40" viewBox="0 0 40 40" fill="none" xmlns="http://www.w3.org/2000/svg">
<path d="M0 20C0 8.95431 8.95431 0 20 0C31.0457 0 40 8.95431 40 20C40 31.0457 31.0457 40 20 40C8.95431 40 0 31.0457 0 20Z" fill="#FFA27D"/>
<path d="M20 27C20.1978 27 20.3911 26.9414 20.5556 26.8315C20.72 26.7216 20.8482 26.5654 20.9239 26.3827C20.9996 26.2 21.0194 25.9989 20.9808 25.8049C20.9422 25.6109 20.847 25.4327 20.7071 25.2929C20.5673 25.153 20.3891 25.0578 20.1951 25.0192C20.0011 24.9806 19.8 25.0004 19.6173 25.0761C19.4346 25.1518 19.2784 25.28 19.1685 25.4444C19.0586 25.6089 19 25.8022 19 26C19 26.2652 19.1054 26.5196 19.2929 26.7071C19.4804 26.8946 19.7348 27 20 27ZM25 27C25.1978 27 25.3911 26.9414 25.5556 26.8315C25.72 26.7216 25.8482 26.5654 25.9239 26.3827C25.9996 26.2 26.0194 25.9989 25.9808 25.8049C25.9422 25.6109 25.847 25.4327 25.7071 25.2929C25.5673 25.153 25.3891 25.0578 25.1951 25.0192C25.0011 24.9806 24.8 25.0004 24.6173 25.0761C24.4346 25.1518 24.2784 25.28 24.1685 25.4444C24.0586 25.6089 24 25.8022 24 26C24 26.2652 24.1054 26.5196 24.2929 26.7071C24.4804 26.8946 24.7348 27 25 27ZM25 23C25.1978 23 25.3911 22.9414 25.5556 22.8315C25.72 22.7216 25.8482 22.5654 25.9239 22.3827C25.9996 22.2 26.0194 21.9989 25.9808 21.8049C25.9422 21.6109 25.847 21.4327 25.7071 21.2929C25.5673 21.153 25.3891 21.0578 25.1951 21.0192C25.0011 20.9806 24.8 21.0004 24.6173 21.0761C24.4346 21.1518 24.2784 21.28 24.1685 21.4444C24.0586 21.6089 24 21.8022 24 22C24 22.2652 24.1054 22.5196 24.2929 22.7071C24.4804 22.8946 24.7348 23 25 23ZM20 23C20.1978 23 20.3911 22.9414 20.5556 22.8315C20.72 22.7216 20.8482 22.5654 20.9239 22.3827C20.9996 22.2 21.0194 21.9989 20.9808 21.8049C20.9422 21.6109 20.847 21.4327 20.7071 21.2929C20.5673 21.153 20.3891 21.0578 20.1951 21.0192C20.0011 20.9806 19.8 21.0004 19.6173 21.0761C19.4346 21.1518 19.2784 21.28 19.1685 21.4444C19.0586 21.6089 19 21.8022 19 22C19 22.2652 19.1054 22.5196 19.2929 22.7071C19.4804 22.8946 19.7348 23 20 23ZM27 11H26V10C26 9.73478 25.8946 9.48043 25.7071 9.29289C25.5196 9.10536 25.2652 9 25 9C24.7348 9 24.4804 9.10536 24.2929 9.29289C24.1054 9.48043 24 9.73478 24 10V11H16V10C16 9.73478 15.8946 9.48043 15.7071 9.29289C15.5196 9.10536 15.2652 9 15 9C14.7348 9 14.4804 9.10536 14.2929 9.29289C14.1054 9.48043 14 9.73478 14 10V11H13C12.2044 11 11.4413 11.3161 10.8787 11.8787C10.3161 12.4413 10 13.2044 10 14V28C10 28.7956 10.3161 29.5587 10.8787 30.1213C11.4413 30.6839 12.2044 31 13 31H27C27.7956 31 28.5587 30.6839 29.1213 30.1213C29.6839 29.5587 30 28.7956 30 28V14C30 13.2044 29.6839 12.4413 29.1213 11.8787C28.5587 11.3161 27.7956 11 27 11ZM28 28C28 28.2652 27.8946 28.5196 27.7071 28.7071C27.5196 28.8946 27.2652 29 27 29H13C12.7348 29 12.4804 28.8946 12.2929 28.7071C12.1054 28.5196 12 28.2652 12 28V19H28V28ZM28 17H12V14C12 13.7348 12.1054 13.4804 12.2929 13.2929C12.4804 13.1054 12.7348 13 13 13H14V14C14 14.2652 14.1054 14.5196 14.2929 14.7071C14.4804 14.8946 14.7348 15 15 15C15.2652 15 15.5196 14.8946 15.7071 14.7071C15.8946 14.5196 16 14.2652 16 14V13H24V14C24 14.2652 24.1054 14.5196 24.2929 14.7071C24.4804 14.8946 24.7348 15 25 15C25.2652 15 25.5196 14.8946 25.7071 14.7071C25.8946 14.5196 26 14.2652 26 14V13H27C27.2652 13 27.5196 13.1054 27.7071 13.2929C27.8946 13.4804 28 13.7348 28 14V17ZM15 23C15.1978 23 15.3911 22.9414 15.5556 22.8315C15.72 22.7216 15.8482 22.5654 15.9239 22.3827C15.9996 22.2 16.0194 21.9989 15.9808 21.8049C15.9422 21.6109 15.847 21.4327 15.7071 21.2929C15.5673 21.153 15.3891 21.0578 15.1951 21.0192C15.0011 20.9806 14.8 21.0004 14.6173 21.0761C14.4346 21.1518 14.2784 21.28 14.1685 21.4444C14.0586 21.6089 14 21.8022 14 22C14 22.2652 14.1054 22.5196 14.2929 22.7071C14.4804 22.8946 14.7348 23 15 23ZM15 27C15.1978 27 15.3911 26.9414 15.5556 26.8315C15.72 26.7216 15.8482 26.5654 15.9239 26.3827C15.9996 26.2 16.0194 25.9989 15.9808 25.8049C15.9422 25.6109 15.847 25.4327 15.7071 25.2929C15.5673 25.153 15.3891 25.0578 15.1951 25.0192C15.0011 24.9806 14.8 25.0004 14.6173 25.0761C14.4346 25.1518 14.2784 25.28 14.1685 25.4444C14.0586 25.6089 14 25.8022 14 26C14 26.2652 14.1054 26.5196 14.2929 26.7071C14.4804 26.8946 14.7348 27 15 27Z" fill="white"/>
</svg>
